<svg width="40" height="42" viewBox="0 0 40 42" fill="none" xmlns="http://www.w3.org/2000/svg">
<path d="M13 3.5H27C32.3333 3.5 36.6667 8.05 36.6667 13.65V28.35C36.6667 31.0419 35.6482 33.6236 33.8354 35.5271C32.0225 37.4306 29.5638 38.5 27 38.5H13C7.66667 38.5 3.33334 33.95 3.33334 28.35V13.65C3.33334 10.9581 4.35179 8.37636 6.16464 6.47287C7.97749 4.56937 10.4362 3.5 13 3.5ZM12.6667 7C11.0754 7 9.54925 7.66375 8.42403 8.84523C7.29881 10.0267 6.66667 11.6291 6.66667 13.3V28.7C6.66667 32.1825 9.35 35 12.6667 35H27.3333C28.9246 35 30.4508 34.3362 31.576 33.1548C32.7012 31.9733 33.3333 30.3709 33.3333 28.7V13.3C33.3333 9.8175 30.65 7 27.3333 7H12.6667ZM28.75 9.625C29.3025 9.625 29.8324 9.85547 30.2231 10.2657C30.6138 10.6759 30.8333 11.2323 30.8333 11.8125C30.8333 12.3927 30.6138 12.9491 30.2231 13.3593C29.8324 13.7695 29.3025 14 28.75 14C28.1975 14 27.6676 13.7695 27.2769 13.3593C26.8862 12.9491 26.6667 12.3927 26.6667 11.8125C26.6667 11.2323 26.8862 10.6759 27.2769 10.2657C27.6676 9.85547 28.1975 9.625 28.75 9.625ZM20 12.25C22.2101 12.25 24.3298 13.1719 25.8926 14.8128C27.4554 16.4538 28.3333 18.6794 28.3333 21C28.3333 23.3206 27.4554 25.5462 25.8926 27.1872C24.3298 28.8281 22.2101 29.75 20 29.75C17.7899 29.75 15.6702 28.8281 14.1074 27.1872C12.5446 25.5462 11.6667 23.3206 11.6667 21C11.6667 18.6794 12.5446 16.4538 14.1074 14.8128C15.6702 13.1719 17.7899 12.25 20 12.25ZM20 15.75C18.6739 15.75 17.4021 16.3031 16.4645 17.2877C15.5268 18.2723 15 19.6076 15 21C15 22.3924 15.5268 23.7277 16.4645 24.7123C17.4021 25.6969 18.6739 26.25 20 26.25C21.3261 26.25 22.5979 25.6969 23.5355 24.7123C24.4732 23.7277 25 22.3924 25 21C25 19.6076 24.4732 18.2723 23.5355 17.2877C22.5979 16.3031 21.3261 15.75 20 15.75Z" fill="white"/>
</svg>
