<svg width="90" height="90" viewBox="0 0 90 90" fill="none" xmlns="http://www.w3.org/2000/svg">
<path d="M37.8844 71.8032L12.5719 46.4907C12.1769 46.0952 11.955 45.5591 11.955 45.0001C11.955 44.4411 12.1769 43.905 12.5719 43.5095L37.8844 18.197C38.2842 17.8244 38.8131 17.6215 39.3596 17.6312C39.9061 17.6408 40.4275 17.8622 40.8139 18.2487C41.2004 18.6352 41.4218 19.1566 41.4314 19.703C41.4411 20.2495 41.2382 20.7784 40.8656 21.1782L19.1566 42.8907H75.9375C76.4969 42.8907 77.0335 43.113 77.4291 43.5086C77.8246 43.9042 78.0469 44.4407 78.0469 45.0001C78.0469 45.5596 77.8246 46.0961 77.4291 46.4917C77.0335 46.8873 76.4969 47.1095 75.9375 47.1095H19.1566L40.8656 68.822C41.2382 69.2219 41.4411 69.7507 41.4314 70.2972C41.4218 70.8437 41.2004 71.3651 40.8139 71.7516C40.4275 72.138 39.9061 72.3594 39.3596 72.369C38.8131 72.3787 38.2842 72.1758 37.8844 71.8032Z" fill="#3D643F"/>
</svg>
