<svg width="40" height="42" viewBox="0 0 40 42" fill="none" xmlns="http://www.w3.org/2000/svg">
<path d="M4.375 5.25H35.625C38.04 5.25 40 7.308 40 9.84375V32.1562C40 33.3746 39.5391 34.543 38.7186 35.4045C37.8981 36.266 36.7853 36.75 35.625 36.75H4.375C3.21468 36.75 2.10188 36.266 1.28141 35.4045C0.460936 34.543 0 33.3746 0 32.1562L0 9.84375C0 7.308 1.96 5.25 4.375 5.25ZM3.75 32.1589C3.75 32.5211 4.03 32.8151 4.375 32.8151H35.625C35.7908 32.8151 35.9497 32.746 36.0669 32.6229C36.1842 32.4998 36.25 32.3329 36.25 32.1589V15.2486L20.95 24.6671C20.662 24.8448 20.334 24.9385 20 24.9385C19.666 24.9385 19.338 24.8448 19.05 24.6671L3.75 15.2486V32.1589ZM36.25 10.6838V9.84375C36.25 9.6697 36.1842 9.50278 36.0669 9.37971C35.9497 9.25664 35.7908 9.1875 35.625 9.1875H4.375C4.20924 9.1875 4.05027 9.25664 3.93306 9.37971C3.81585 9.50278 3.75 9.6697 3.75 9.84375V10.6838L20 20.685L36.25 10.6838Z" fill="white"/>
</svg>
