<svg width="40" height="42" viewBox="0 0 40 42" fill="none" xmlns="http://www.w3.org/2000/svg">
<path d="M23.7922 6.22305C23.8346 6.05648 23.9079 5.90032 24.0078 5.76349C24.1078 5.62667 24.2324 5.51186 24.3746 5.42562C24.5168 5.33939 24.6738 5.28342 24.8366 5.26091C24.9994 5.2384 25.1648 5.2498 25.3235 5.29445C27.6407 5.92929 29.755 7.20126 31.4484 8.97936C33.1418 10.7575 34.3532 12.9774 34.9578 15.4105C35.0004 15.5771 35.0112 15.7508 34.9898 15.9218C34.9683 16.0927 34.915 16.2575 34.8329 16.4069C34.7508 16.5562 34.6414 16.687 34.5111 16.7919C34.3808 16.8969 34.2321 16.9738 34.0735 17.0184C33.9679 17.0475 33.8592 17.0624 33.75 17.0627C33.4748 17.0627 33.2072 16.9674 32.9888 16.7915C32.7704 16.6156 32.6134 16.3689 32.5422 16.0898C32.0493 14.1032 31.0608 12.2906 29.6784 10.8389C28.2961 9.38711 26.57 8.34876 24.6781 7.83086C24.5194 7.78648 24.3705 7.70967 24.24 7.60482C24.1095 7.49997 24 7.36914 23.9177 7.21981C23.8354 7.07048 23.782 6.90558 23.7605 6.73455C23.7389 6.56351 23.7497 6.3897 23.7922 6.22305ZM23.4281 13.0809C25.5828 13.6846 26.9672 15.1398 27.5422 17.4023C27.6134 17.6814 27.7704 17.9281 27.9888 18.104C28.2072 18.2799 28.4748 18.3752 28.75 18.3752C28.8592 18.3749 28.9679 18.36 29.0735 18.3309C29.2321 18.2863 29.3808 18.2094 29.5111 18.1044C29.6414 17.9995 29.7508 17.8687 29.8329 17.7194C29.915 17.57 29.9683 17.4052 29.9898 17.2343C30.0112 17.0633 30.0004 16.8896 29.9578 16.723C29.1578 13.5796 27.0672 11.3845 24.0735 10.5445C23.9148 10.5 23.7494 10.4887 23.5867 10.5113C23.4239 10.534 23.267 10.59 23.1249 10.6763C22.9828 10.7626 22.8582 10.8775 22.7584 11.0143C22.6586 11.1512 22.5854 11.3073 22.543 11.4739C22.5006 11.6404 22.4899 11.8141 22.5114 11.985C22.533 12.1559 22.5864 12.3206 22.6686 12.4699C22.7508 12.6191 22.8602 12.7498 22.9905 12.8547C23.1208 12.9595 23.2695 13.0364 23.4281 13.0809ZM34.7453 25.9975L27.3844 22.5341L27.3641 22.5243C26.9819 22.3527 26.5651 22.2838 26.1512 22.3239C25.7373 22.364 25.3395 22.5118 24.9938 22.754C24.9531 22.7822 24.9139 22.8129 24.8766 22.8459L21.0735 26.2502C18.6641 25.0213 16.1766 22.4291 15.0063 19.9321L18.2531 15.8781C18.2844 15.8371 18.3141 15.7961 18.3422 15.7518C18.5679 15.3897 18.7048 14.9747 18.7408 14.5436C18.7768 14.1125 18.7107 13.6788 18.5485 13.281V13.2613L15.2406 5.51922C15.0262 4.99957 14.6574 4.5667 14.1894 4.2852C13.7213 4.00371 13.1792 3.8887 12.6438 3.95734C10.5265 4.24988 8.58311 5.34165 7.17647 7.02875C5.76984 8.71585 4.99619 10.8829 5.00001 13.1252C5.00001 26.1517 15.0938 36.7502 27.5 36.7502C29.6355 36.7542 31.6994 35.9418 33.3061 34.4649C34.9129 32.9879 35.9527 30.9473 36.2313 28.7242C36.2968 28.1622 36.1875 27.5931 35.9197 27.1017C35.6519 26.6103 35.2399 26.223 34.7453 25.9975Z" fill="white"/>
</svg>
