<svg width="90" height="90" viewBox="0 0 90 90" fill="none" xmlns="http://www.w3.org/2000/svg">
<path d="M52.1156 18.1968L77.4281 43.5093C77.8231 43.9048 78.045 44.4409 78.045 44.9999C78.045 45.5589 77.8231 46.095 77.4281 46.4905L52.1156 71.803C51.7158 72.1756 51.1869 72.3785 50.6404 72.3688C50.0939 72.3592 49.5725 72.1378 49.1861 71.7513C48.7996 71.3648 48.5782 70.8434 48.5686 70.297C48.5589 69.7505 48.7618 69.2216 49.1344 68.8218L70.8434 47.1093H14.0625C13.5031 47.1093 12.9665 46.887 12.5709 46.4914C12.1754 46.0959 11.9531 45.5593 11.9531 44.9999C11.9531 44.4404 12.1754 43.9039 12.5709 43.5083C12.9665 43.1127 13.5031 42.8905 14.0625 42.8905H70.8434L49.1344 21.178C48.7618 20.7781 48.5589 20.2493 48.5686 19.7028C48.5782 19.1563 48.7996 18.6349 49.1861 18.2484C49.5725 17.862 50.0939 17.6406 50.6404 17.631C51.1869 17.6213 51.7158 17.8242 52.1156 18.1968Z" fill="#3D643F"/>
</svg>
