<svg width="56" height="68" viewBox="0 0 56 68" fill="none" xmlns="http://www.w3.org/2000/svg">
<path d="M1.19687 26.8844L26.5094 1.57188C26.9049 1.17686 27.441 0.954984 28 0.954983C28.559 0.954983 29.0951 1.17686 29.4906 1.57188L54.8031 26.8844C55.1757 27.2842 55.3786 27.8131 55.3689 28.3596C55.3593 28.9061 55.1379 29.4275 54.7514 29.8139C54.365 30.2004 53.8436 30.4218 53.2971 30.4314C52.7506 30.4411 52.2217 30.2382 51.8219 29.8656L30.1094 8.15664L30.1094 64.9375C30.1094 65.4969 29.8871 66.0335 29.4916 66.4291C29.096 66.8246 28.5594 67.0469 28 67.0469C27.4406 67.0469 26.904 66.8246 26.5084 66.4291C26.1129 66.0335 25.8906 65.4969 25.8906 64.9375L25.8906 8.15665L4.17813 29.8656C3.77826 30.2382 3.24938 30.4411 2.70291 30.4314C2.15643 30.4218 1.63504 30.2004 1.24856 29.8139C0.862089 29.4275 0.640712 28.9061 0.63107 28.3596C0.621428 27.8131 0.824271 27.2842 1.19687 26.8844Z" fill="white"/>
</svg>
